<svg width="70" height="70" viewBox="0 0 70 70" fill="none" xmlns="http://www.w3.org/2000/svg">
<path d="M50.2507 63.1532V55.6053C53.6747 53.0547 56.512 49.696 58.3867 45.7027L59.052 44.2853H50.2507V39.7427H66.776C65.1507 49.8867 58.9013 58.4095 50.2507 63.1532ZM39.7427 60.3428C42.7747 59.724 45.656 58.5761 48.2627 56.9813V64.1532C45.5973 65.3865 42.7467 66.2933 39.7427 66.7745V60.3428ZM50.2507 46.2747H55.8627C54.4133 48.8987 52.4867 51.172 50.2507 53.0627V46.2747ZM48.2627 54.5787C45.6947 56.336 42.8147 57.6308 39.7427 58.312V46.2747H48.2627V54.5787ZM37.7547 44.2853V58.6641C35.636 58.9521 33.4347 58.9333 31.292 58.6521V50.2507H34.524V48.2627H31.292V41.6187C32.2787 42.0693 33.368 42.3373 34.524 42.3373C36.8187 42.3373 38.8667 41.324 40.2973 39.7427H48.2627V44.2853H37.7547ZM5.89201 50.2507H13.4413C15.992 53.6747 19.3507 56.5131 23.344 58.3865L24.76 59.0505V50.2507H29.3027V66.7745C19.16 65.1505 10.636 58.9027 5.89201 50.2507ZM8.704 39.7413C9.32267 42.7733 10.4707 45.6547 12.0653 48.2627H4.89201C3.66001 45.596 2.75201 42.7453 2.27201 39.7413H8.704ZM22.772 50.2507V55.8641C20.148 54.4147 17.8747 52.4867 15.984 50.2507H22.772ZM14.468 48.2627C12.7107 45.6947 11.416 42.8133 10.7373 39.7413L22.772 39.7427V48.2627H14.468ZM18.796 31.2907V34.5227H20.784V31.2907H27.428C26.976 32.28 26.708 33.3667 26.708 34.5227C26.708 36.8187 27.7213 38.8653 29.3027 40.296V48.2627H24.76V37.7547L10.3827 37.7533C10.2387 36.6907 10.164 35.612 10.164 34.5227C10.164 33.4427 10.2573 32.3613 10.3987 31.2907H18.796ZM18.796 5.89201V13.4427C15.3707 15.992 12.5333 19.3507 10.66 23.344L9.99601 24.76H18.796V29.304H2.27201C3.89601 19.16 10.1427 10.6373 18.796 5.89201ZM29.304 8.704C26.2733 9.32267 23.3907 10.4707 20.784 12.0667V4.89201C23.4493 3.66001 26.3013 2.75201 29.304 2.27201V8.704ZM18.796 22.772H13.1827C14.632 20.148 16.56 17.8747 18.796 15.984V22.772ZM20.784 14.468C23.352 12.7107 26.2333 11.416 29.304 10.736V22.772H20.784V14.468ZM31.292 24.76V10.3827C33.4147 10.096 35.62 10.1133 37.7547 10.3947L37.756 18.796H34.524V20.784H37.756V27.4293C36.768 26.976 35.6787 26.708 34.524 26.708C32.2267 26.708 30.18 27.7213 28.7493 29.304H20.784V24.76H31.292ZM63.1547 18.796H55.6053C53.0547 15.372 49.696 12.5333 45.7013 10.66L44.2853 9.99466V18.796H39.7427V2.27201C49.8853 3.89601 58.4093 10.144 63.1547 18.796ZM60.3413 29.304C59.7227 26.2733 58.576 23.3907 56.9813 20.784H64.1547C65.3867 23.4507 66.2947 26.3 66.776 29.304H60.3413ZM46.2747 18.796V13.1813C48.8987 14.632 51.172 16.56 53.0627 18.796H46.2747ZM54.5787 20.784C56.3347 23.352 57.6307 26.2333 58.312 29.304H46.2747V20.784H54.5787ZM28.696 34.5227C28.696 31.3107 31.3093 28.6973 34.524 28.6973C37.736 28.6973 40.3507 31.3107 40.3507 34.5227C40.3507 37.736 37.736 40.3507 34.524 40.3507C31.3093 40.3507 28.696 37.736 28.696 34.5227ZM50.2507 37.7547V34.5227H48.2627V37.7547H41.6187C42.0707 36.7667 42.3387 35.6787 42.3387 34.5227C42.3387 32.2267 41.3253 30.18 39.7427 28.7493V20.784H44.2853V31.2907L58.664 31.2933C58.808 32.356 58.8827 33.4333 58.8827 34.5227C58.8827 35.6053 58.7893 36.6853 58.648 37.7547H50.2507ZM60.8707 34.5227C60.8707 33.4347 60.8027 32.356 60.668 31.2933H69.048L68.908 30.176C66.9373 14.4587 54.588 2.10801 38.872 0.138673L37.7547 1.06366e-06V8.38934C35.6147 8.12934 33.416 8.11201 31.292 8.37734V1.06366e-06L30.1747 0.138673C14.4587 2.10801 2.10801 14.4587 0.140007 30.1747L0 31.2907H8.39601C8.26535 32.3627 8.17734 33.4427 8.17734 34.5227C8.17734 35.612 8.24534 36.6893 8.37734 37.7533H0L0.140007 38.872C2.10801 54.588 14.4587 66.9376 30.1733 68.9068L31.292 69.0453V60.6557C33.4373 60.9199 35.6333 60.9344 37.7547 60.6677V69.0453L38.872 68.9068C54.588 66.9387 66.9373 54.588 68.908 38.872L69.048 37.7547H60.6507C60.7813 36.684 60.8707 35.6053 60.8707 34.5227Z" fill="#F78F3F"/>
</svg>
