<svg width="65" height="65" viewBox="0 0 65 65" fill="none" xmlns="http://www.w3.org/2000/svg">
<path d="M47.9787 60.8812V53.3333C51.4027 50.7827 54.24 47.424 56.1147 43.4307L56.78 42.0133H47.9787V37.4707H64.504C62.8787 47.6147 56.6293 56.1375 47.9787 60.8812ZM37.4707 58.0708C40.5027 57.452 43.384 56.3041 45.9907 54.7093V61.8812C43.3253 63.1145 40.4747 64.0213 37.4707 64.5025V58.0708ZM47.9787 44.0027H53.5907C52.1413 46.6267 50.2147 48.9 47.9787 50.7907V44.0027ZM45.9907 52.3067C43.4227 54.064 40.5427 55.3588 37.4707 56.04V44.0027H45.9907V52.3067ZM35.4827 42.0133V56.3921C33.364 56.6801 31.1627 56.6613 29.02 56.3801V47.9787H32.252V45.9907H29.02V39.3467C30.0067 39.7973 31.096 40.0653 32.252 40.0653C34.5467 40.0653 36.5947 39.052 38.0253 37.4707H45.9907V42.0133H35.4827ZM3.62 47.9787H11.1693C13.72 51.4027 17.0787 54.2411 21.072 56.1145L22.488 56.7785V47.9787H27.0307V64.5025C16.888 62.8785 8.364 56.6307 3.62 47.9787ZM6.432 37.4693C7.05066 40.5013 8.19868 43.3827 9.79334 45.9907H2.62C1.388 43.324 0.48 40.4733 0 37.4693H6.432ZM20.5 47.9787V53.5921C17.876 52.1427 15.6027 50.2147 13.712 47.9787H20.5ZM12.196 45.9907C10.4387 43.4227 9.144 40.5413 8.46533 37.4693L20.5 37.4707V45.9907H12.196ZM16.524 29.0187V32.2507H18.512V29.0187H25.156C24.704 30.008 24.436 31.0947 24.436 32.2507C24.436 34.5467 25.4493 36.5933 27.0307 38.024V45.9907H22.488V35.4827L8.11066 35.4813C7.96666 34.4187 7.89201 33.34 7.89201 32.2507C7.89201 31.1707 7.98534 30.0893 8.12668 29.0187H16.524ZM16.524 3.62001V11.1707C13.0987 13.72 10.2613 17.0787 8.388 21.072L7.72401 22.488H16.524V27.032H0C1.624 16.888 7.87067 8.36534 16.524 3.62001ZM27.032 6.43201C24.0013 7.05067 21.1187 8.19867 18.512 9.79467V2.62001C21.1773 1.38801 24.0293 0.48 27.032 0V6.43201ZM16.524 20.5H10.9107C12.36 17.876 14.288 15.6027 16.524 13.712V20.5ZM18.512 12.196C21.08 10.4387 23.9613 9.144 27.032 8.464V20.5H18.512V12.196ZM29.02 22.488V8.11067C31.1427 7.824 33.348 7.84133 35.4827 8.12266L35.484 16.524H32.252V18.512H35.484V25.1573C34.496 24.704 33.4067 24.436 32.252 24.436C29.9547 24.436 27.908 25.4493 26.4773 27.032H18.512V22.488H29.02ZM60.8827 16.524H53.3333C50.7827 13.1 47.424 10.2613 43.4293 8.38801L42.0133 7.72266V16.524H37.4707V0C47.6133 1.624 56.1373 7.872 60.8827 16.524ZM58.0693 27.032C57.4507 24.0013 56.304 21.1187 54.7093 18.512H61.8827C63.1147 21.1787 64.0227 24.028 64.504 27.032H58.0693ZM44.0027 16.524V10.9093C46.6267 12.36 48.9 14.288 50.7907 16.524H44.0027ZM52.3067 18.512C54.0627 21.08 55.3587 23.9613 56.04 27.032H44.0027V18.512H52.3067ZM26.424 32.2507C26.424 29.0387 29.0373 26.4253 32.252 26.4253C35.464 26.4253 38.0787 29.0387 38.0787 32.2507C38.0787 35.464 35.464 38.0787 32.252 38.0787C29.0373 38.0787 26.424 35.464 26.424 32.2507ZM47.9787 35.4827V32.2507H45.9907V35.4827H39.3467C39.7987 34.4947 40.0667 33.4067 40.0667 32.2507C40.0667 29.9547 39.0533 27.908 37.4707 26.4773V18.512H42.0133V29.0187L56.392 29.0213C56.536 30.084 56.6107 31.1613 56.6107 32.2507C56.6107 33.3333 56.5173 34.4133 56.376 35.4827H47.9787Z" fill="#F78F3F"/>
</svg>
